<?xml version="1.0" encoding="UTF-8"?>
<!-- Generated by Pixelmator Pro 2.4.3 -->
<svg width="1024" height="1024" viewBox="0 0 1024 1024" xmlns="http://www.w3.org/2000/svg" xmlns:xlink="http://www.w3.org/1999/xlink">
    <path id="Rounded-Rectangle" fill="#ff1a87" fill-rule="evenodd" stroke="#ffffff" stroke-width="40" stroke-linecap="round" stroke-linejoin="round" d="M 224.498917 62 C 135.029556 62 62.498917 134.53064 62.498917 224 L 62.498917 800 C 62.498917 889.46936 135.029556 962 224.498917 962 L 800.498901 962 C 889.968262 962 962.498901 889.46936 962.498901 800 L 962.498901 224 C 962.498901 134.53064 889.968262 62 800.498901 62 Z"/>
    <path id="path1" fill="#ffffff" fill-rule="evenodd" stroke="none" d="M 693.900269 773.569336 C 717.953308 773.569336 734.931946 755.883179 734.931946 735.013672 C 734.931946 722.987122 731.748413 714.497803 718.660767 701.056396 L 685.764587 666.745361 C 713.708618 628.897095 728.918701 575.485107 728.918701 516.059875 C 728.918701 488.823364 713.708618 469.722351 686.472046 469.722351 C 659.235474 469.722351 644.73291 487.054749 644.025513 515.706177 C 643.671753 556.384155 636.243591 582.91333 624.570801 603.075439 L 527.651062 498.373779 C 598.395386 459.818176 630.937744 418.078979 630.937744 365.72821 C 630.937744 297.106201 572.219971 249 488.741638 249 C 405.617035 249 344.069458 299.228516 344.069458 367.496765 C 344.069458 404.991272 361.401825 436.826233 407.385651 484.224976 C 405.970764 484.932434 389.699585 493.775452 384.393738 496.605164 C 319.30896 532.331116 289.950043 574.42395 289.950043 632.434326 C 289.950043 719.096191 359.633209 775.337891 467.87204 775.337891 C 529.773376 775.337891 588.137451 756.236938 625.985657 723.69458 L 654.990845 754.822021 C 668.432312 768.970947 677.982727 773.569336 693.900269 773.569336 Z M 479.89859 450.267639 C 445.233856 416.664124 432.499878 396.501953 432.499878 372.802612 C 432.499878 340.967651 456.199219 317.622009 489.095367 317.622009 C 522.345154 317.622009 544.983337 340.260254 544.983337 372.802612 C 544.983337 403.576355 526.236145 426.2146 479.89859 450.267639 Z M 478.483704 700.348877 C 423.65686 700.348877 386.516083 669.928833 386.516083 624.298706 C 386.516083 592.817505 402.079834 570.179321 440.635498 545.772522 C 443.81897 544.003906 450.893433 540.112976 454.784363 538.34436 L 571.866272 664.976746 C 552.057861 686.553772 515.270752 700.348877 478.483704 700.348877 Z"/>
</svg>
