<?xml version="1.0" standalone="no"?>
<!DOCTYPE svg PUBLIC "-//W3C//DTD SVG 20010904//EN"
 "http://www.w3.org/TR/2001/REC-SVG-20010904/DTD/svg10.dtd">
<svg version="1.0" xmlns="http://www.w3.org/2000/svg"
 width="700.000000pt" height="700.000000pt" viewBox="0 0 700.000000 700.000000"
 preserveAspectRatio="xMidYMid meet">
<metadata>
Created by potrace 1.14, written by Peter Selinger 2001-2017
</metadata>
<g transform="translate(0.000000,700.000000) scale(0.100000,-0.100000)"
fill="#000000" stroke="none">
<path d="M1367 6424 c-105 -19 -186 -47 -284 -99 -253 -134 -422 -353 -496
-642 l-22 -88 0 -2095 0 -2095 22 -88 c32 -124 77 -227 144 -327 129 -193 337
-340 570 -402 l84 -23 2065 -3 c1450 -2 2090 0 2149 8 405 53 739 363 822 763
18 89 19 167 19 2167 0 2000 -1 2078 -19 2167 -58 281 -242 524 -501 661 -91
49 -209 87 -314 101 -54 8 -704 11 -2119 10 -1706 -1 -2055 -3 -2120 -15z
m2243 -1154 c362 -74 621 -304 686 -610 24 -111 15 -289 -20 -395 -74 -229
-260 -428 -574 -616 -48 -29 -89 -54 -91 -55 -2 -2 140 -157 314 -346 175
-189 324 -349 331 -357 10 -11 17 -4 42 45 61 121 89 251 102 477 10 171 24
225 76 285 44 52 105 81 186 89 127 11 229 -42 286 -151 26 -50 27 -55 27
-226 -1 -202 -19 -332 -71 -515 -38 -129 -110 -292 -176 -392 l-40 -63 140
-144 c164 -170 192 -216 192 -316 0 -164 -141 -284 -312 -266 -109 11 -162 49
-350 254 l-77 82 -78 -56 c-132 -95 -335 -186 -520 -234 -175 -44 -260 -54
-483 -54 -231 0 -316 10 -487 60 -241 70 -445 206 -568 378 -190 269 -217 661
-64 956 103 200 299 374 594 530 55 30 102 55 104 56 1 1 -36 47 -85 101 -301
338 -393 593 -318 886 115 449 662 713 1234 597z"/>
<path d="M3254 4820 c-110 -22 -206 -96 -256 -198 -31 -62 -33 -73 -33 -172 0
-100 2 -109 36 -180 40 -84 124 -193 220 -287 l64 -62 86 52 c176 107 261 187
310 292 70 147 49 335 -49 446 -79 90 -240 136 -378 109z"/>
<path d="M3055 3292 c-302 -166 -444 -386 -407 -631 39 -256 248 -422 564
-446 199 -16 450 50 600 158 116 82 147 28 -268 477 -201 217 -382 412 -402
432 l-37 37 -50 -27z"/>
</g>
</svg>
