<svg height="512" viewBox="0 0 512 512" width="512" xmlns="http://www.w3.org/2000/svg"><path d="m496 109.5c-18.005432 7.823517-37.056122 12.977814-56.549988 15.299988 20.486664-11.996186 35.893189-31.054321 43.329987-53.599976-19.369049 11.325897-40.524445 19.272705-62.559998 23.5-18.752014-19.652618-44.746429-30.750213-71.910003-30.700012-54.419983 0-98.459992 43.399994-98.459992 96.899994-.038589 7.44165.814148 14.861145 2.539993 22.100006-78.905929-3.699097-152.601188-40.474121-203-101.299988-8.744251 14.741181-13.368679 31.560425-13.389999 48.699982 0 33.600006 17.529999 63.300018 44 80.700012-15.682724-.372192-31.044094-4.52298-44.779999-12.100006v1.200012c0 47 34 86.099976 79 95-8.462166 2.255799-17.182319 3.398773-25.940002 3.399994-6.214211.010834-12.414307-.592102-18.510002-1.800018 12.510002 38.5 48.920005 66.5 92.05001 67.300018-35.046219 27.009247-78.073822 41.607391-122.320007 41.5-7.853821-.011688-15.700344-.479126-23.5-1.399994 45.011795 28.742157 97.33445 43.945374 150.740005 43.799988 181.360001 0 280.439988-147.700012 280.439988-275.799988 0-4.200012-.109986-8.400024-.309998-12.5 19.230896-13.679443 35.868042-30.678894 49.130005-50.200012z" fill="#fff"/></svg>